<svg class="img-fluid" id="outputsvg" xmlns="http://www.w3.org/2000/svg" style="transform: matrix(1, 0, 0, 1, 0, 0); transform-origin: 50% 50%; cursor: move; transition: transform 200ms ease-in-out 0s;" width="916" height="1060" viewBox="0 0 9160 10600"><g id="l6KAfFGUyWoNmLBnrV6MjES" fill="rgb(255,255,255)" style="transform: none;"><g style="transform: none;"><path id="pOYOra7xM" d="M0 5300 l0 -5300 4580 0 4580 0 0 340 0 340 -12 0 c-7 0 -18 -4 -24 -8 l-11 -7 -8 -35 c-8 -38 -62 -145 -98 -192 -24 -34 -161 -169 -210 -209 -18 -14 -62 -42 -99 -62 l-67 -36 -38 -7 c-21 -3 -64 -17 -95 -30 l-57 -24 -1350 0 -1349 0 -17 6 -16 7 118 122 c65 67 142 152 171 189 l53 65 14 42 15 42 0 61 0 61 -14 71 -13 71 -27 39 c-14 21 -26 44 -26 50 0 11 -51 119 -109 231 -14 28 -34 60 -44 71 l-17 19 -16 49 c-9 27 -23 56 -30 65 l-14 15 -35 108 -35 107 0 27 0 27 13 25 12 24 47 17 48 17 31 26 c17 14 35 26 40 26 5 0 30 21 56 46 58 56 117 95 249 165 54 28 124 69 154 90 l55 39 69 77 69 78 13 32 c8 18 27 47 42 65 47 55 69 91 80 130 l10 38 22 27 c12 16 40 60 63 100 l42 71 45 39 c25 21 63 51 85 65 38 26 126 97 279 225 70 59 106 84 186 126 25 13 59 31 75 40 17 9 95 48 175 87 167 83 250 126 300 157 19 11 55 26 80 33 101 27 258 102 430 208 58 35 123 75 145 87 22 12 68 40 102 61 138 86 170 105 228 134 93 48 127 67 172 97 l43 28 0 706 0 705 -55 85 c-30 46 -67 102 -81 124 l-27 40 -84 82 -84 83 -37 20 c-20 12 -62 36 -93 54 l-55 33 -115 36 -114 37 -175 0 -175 -1 -40 -15 c-22 -9 -69 -23 -105 -33 -36 -10 -83 -27 -105 -38 -22 -11 -51 -24 -65 -28 -14 -4 -44 -19 -68 -34 l-43 -26 -98 -95 -97 -95 -31 -45 c-16 -25 -35 -60 -41 -78 -6 -18 -20 -46 -31 -61 -12 -16 -35 -66 -53 -112 l-33 -84 0 -230 0 -230 21 -40 21 -41 12 -54 12 -54 24 -32 c13 -17 27 -43 31 -58 3 -14 10 -29 15 -32 5 -3 24 -29 43 -57 l33 -52 69 -62 c79 -72 170 -143 181 -143 5 0 24 -11 43 -23 19 -13 58 -32 87 -41 l51 -17 5 -13 5 -14 -23 -10 c-13 -6 -40 -14 -62 -18 -21 -4 -54 -14 -73 -24 -19 -10 -53 -23 -75 -30 l-40 -12 -20 -19 -21 -18 -44 -16 c-24 -9 -52 -23 -62 -31 -9 -9 -39 -27 -65 -41 -57 -28 -136 -71 -218 -118 -86 -50 -297 -147 -390 -181 -22 -8 -53 -21 -70 -28 -16 -8 -64 -31 -106 -50 l-75 -36 -20 0 -20 0 -130 -64 c-71 -35 -140 -67 -154 -71 -14 -4 -41 -16 -60 -26 -51 -26 -161 -70 -191 -76 l-25 -5 -58 59 c-33 32 -70 76 -84 98 -13 22 -39 58 -57 80 -18 22 -40 56 -50 75 -23 45 -130 184 -212 277 l-64 72 -54 31 -54 31 -83 14 c-46 7 -101 20 -123 28 -22 8 -62 17 -90 22 -55 8 -94 25 -115 50 l-14 17 11 6 c6 4 29 32 52 62 l41 54 0 56 0 56 -35 125 c-19 68 -35 134 -35 147 l0 23 17 32 c17 33 86 120 176 221 28 32 58 70 66 85 7 14 37 54 65 88 53 64 135 171 173 226 12 18 32 43 43 57 12 14 58 73 103 133 45 59 97 127 114 150 18 23 44 58 58 77 14 19 43 60 64 90 22 30 52 75 66 100 14 25 41 70 60 100 19 30 41 71 50 90 8 19 22 46 30 60 8 14 28 53 44 86 16 34 34 64 39 68 l10 6 7 33 c4 17 20 55 36 83 16 28 29 58 29 66 0 8 11 36 24 64 70 145 87 183 100 224 8 25 29 81 46 125 18 44 37 97 43 118 l11 38 -21 104 -22 104 -26 58 c-15 32 -42 90 -60 128 -19 39 -37 84 -41 100 -4 17 -17 51 -30 77 -13 26 -24 53 -24 59 0 12 -66 166 -96 224 -9 16 -45 117 -80 223 l-64 194 -14 84 c-8 46 -19 92 -25 102 -6 11 -22 71 -35 133 -14 63 -31 130 -39 149 l-15 35 -6 57 -7 57 -19 24 -19 24 -11 45 -12 45 -34 35 -34 35 -71 5 -71 5 -16 17 -16 16 18 32 c59 111 77 142 91 158 8 9 15 21 15 27 0 5 13 28 30 51 l29 41 7 27 7 28 66 75 c86 99 117 126 171 152 25 11 52 28 61 36 9 8 36 22 60 31 24 10 63 31 85 47 l42 30 25 50 24 50 13 71 13 71 -7 47 -7 47 -41 25 -41 26 -251 -5 -251 -5 -35 -11 c-19 -7 -71 -18 -114 -26 l-80 -15 -75 -31 -76 -32 -28 -23 c-16 -13 -33 -24 -38 -24 -5 0 -41 -29 -80 -65 -39 -36 -75 -65 -79 -65 -5 0 -25 -11 -45 -24 l-36 -25 -47 -6 c-26 -4 -86 -20 -135 -36 -48 -16 -92 -29 -97 -29 -12 0 -125 -75 -166 -110 -16 -14 -44 -45 -63 -68 l-34 -44 -5 -48 -4 -49 21 -27 c11 -15 21 -33 21 -41 l0 -14 26 -24 26 -24 29 -72 30 -73 11 -73 11 -74 25 -37 c13 -20 29 -50 35 -67 l10 -30 54 -63 c29 -35 53 -67 53 -72 0 -5 13 -24 28 -42 16 -18 41 -55 56 -83 l28 -50 38 -113 38 -113 27 -39 27 -38 18 -61 19 -61 10 -77 c29 -220 42 -302 55 -344 l14 -47 17 -128 16 -129 24 -75 23 -75 7 -70 c3 -38 13 -106 22 -150 l15 -80 -5 -47 -6 -47 -23 -45 -23 -45 -357 -358 c-326 -327 -483 -481 -808 -788 -63 -60 -117 -112 -120 -115 -13 -14 -100 -69 -118 -74 l-21 -7 -21 11 -20 11 -15 29 -15 29 0 93 0 93 19 140 c10 77 24 152 30 167 5 15 17 67 26 115 9 48 25 117 35 153 11 36 24 102 30 148 6 46 20 118 31 160 l21 77 5 175 5 175 -17 45 c-9 25 -26 77 -39 116 l-23 70 -20 30 c-11 16 -40 59 -64 95 -67 101 -124 174 -195 248 l-64 68 -15 44 -16 43 -18 21 c-10 11 -28 38 -38 60 -11 22 -27 54 -35 70 -60 118 -102 222 -167 412 l-31 91 -16 144 -15 143 17 126 18 127 -10 48 -9 49 -35 17 -35 17 -45 1 -45 0 -65 -19 c-36 -10 -73 -22 -82 -25 l-17 -8 -14 29 c-8 15 -17 44 -21 63 -11 62 -36 382 -36 465 l0 80 10 35 c6 19 17 91 25 160 9 69 24 172 34 230 l19 105 6 103 5 102 -388 0 -389 0 -12 -52 c-7 -29 -23 -74 -36 -99 l-23 -46 -20 -103 -21 -102 0 -67 0 -66 20 -103 20 -103 10 -167 c13 -225 18 -275 37 -357 l15 -70 58 -115 c31 -63 60 -128 64 -143 4 -16 27 -64 52 -106 l44 -77 31 -84 c17 -47 38 -112 46 -145 8 -33 24 -90 34 -128 l20 -67 15 -152 c8 -84 24 -202 34 -263 l19 -110 20 -55 c41 -117 68 -186 80 -209 8 -14 24 -54 36 -90 34 -100 75 -192 101 -231 13 -19 24 -39 24 -45 0 -6 11 -26 24 -45 l23 -35 16 -50 c8 -27 23 -70 32 -95 l16 -44 0 -51 c0 -123 -92 -538 -146 -662 -8 -18 -21 -59 -30 -92 l-15 -59 -40 -64 c-22 -34 -48 -76 -58 -92 -9 -15 -28 -45 -41 -65 l-25 -36 -18 -65 -18 -65 0 -207 0 -208 -25 -87 c-14 -48 -37 -118 -50 -155 l-25 -69 -20 -132 -21 -132 -6 -145 -6 -145 22 -104 c11 -57 21 -112 21 -121 l0 -17 -69 -70 -68 -69 -17 -32 -17 -32 -6 -80 -6 -80 -6 0 c-4 0 -31 16 -61 35 -30 19 -58 35 -63 35 -5 0 -22 12 -37 28 -45 43 -91 81 -145 121 -28 20 -87 72 -132 117 l-82 81 -20 44 -19 44 -37 43 -37 43 -50 27 c-169 93 -207 117 -240 157 -38 47 -86 122 -117 184 l-29 56 -12 80 -12 80 -25 78 c-13 43 -29 106 -34 140 -6 34 -19 91 -29 125 -11 35 -25 93 -30 129 l-11 66 -14 26 c-7 14 -29 43 -48 64 l-35 37 -55 0 -56 0 -20 -22 -21 -21 -16 -44 -17 -44 6 -106 6 -106 -8 9 c-5 5 -14 25 -20 45 l-12 37 -59 55 -60 55 -2 44 c-1 23 -2 79 -2 124 l-1 81 -13 16 -13 16 -31 6 -30 7 -44 -7 -44 -6 -34 -35 -33 -34 -55 0 -55 0 -15 -17 c-9 -10 -23 -40 -32 -67 l-17 -49 -6 -161 -6 -161 18 -35 c23 -44 121 -186 184 -266 l48 -61 73 -223 74 -224 26 -30 c15 -17 42 -53 60 -81 47 -70 131 -172 259 -315 37 -41 75 -86 84 -100 25 -36 447 -460 478 -479 14 -9 80 -66 145 -127 131 -123 235 -212 292 -250 20 -14 71 -54 112 -90 120 -102 263 -220 435 -359 88 -71 186 -150 218 -177 32 -26 72 -55 90 -64 58 -30 214 -173 273 -251 12 -15 25 -39 29 -53 4 -14 15 -40 26 -57 10 -18 25 -54 33 -81 17 -58 61 -139 113 -206 l38 -48 25 -14 c40 -22 148 -70 255 -114 55 -22 127 -54 159 -70 32 -17 66 -30 75 -30 9 0 43 -14 76 -30 33 -16 67 -30 75 -30 8 0 40 -13 70 -30 l55 -29 19 -1 c10 0 40 -11 67 -25 27 -13 68 -29 90 -35 23 -6 58 -22 78 -35 20 -12 59 -30 86 -40 28 -9 70 -26 94 -38 l44 -22 20 -27 20 -27 -15 -38 c-28 -69 -77 -227 -87 -283 l-9 -55 -22 -50 -22 -50 -5 -87 -6 -88 39 -76 39 -76 91 -91 c49 -51 103 -102 120 -114 l29 -22 -1935 -1 -1935 0 -95 26 -95 26 -45 24 c-25 13 -49 24 -55 24 -15 0 -167 115 -202 153 -6 6 -35 41 -65 77 l-54 65 -12 35 c-7 19 -24 51 -37 70 l-24 35 -28 105 -28 105 -2 4510 -3 4509 36 110 37 110 35 65 34 66 61 75 60 75 26 17 c14 10 51 36 81 58 30 21 71 47 90 56 19 9 58 27 86 40 28 13 56 24 63 24 15 0 41 25 41 39 l0 11 -345 0 -345 0 0 -5300z"></path><path id="pegdS5YQt" d="M8580 10585 l0 -15 14 0 c8 0 16 -3 18 -7 6 -15 63 -50 100 -62 l37 -12 38 -29 c21 -16 47 -37 57 -47 11 -10 28 -23 38 -28 30 -18 130 -147 183 -237 l33 -58 7 -32 8 -33 11 -7 c6 -4 17 -8 24 -8 l12 0 0 295 0 295 -290 0 -290 0 0 -15z"></path></g></g><g id="l5DTqF17E4rIVLBZNB8zxyX" fill="rgb(210,79,89)" style="transform: none;"><g style="transform: none;"><path id="pEsUKrgJU" d="M630 10584 c-25 -8 -63 -23 -85 -33 -22 -10 -56 -26 -75 -35 -19 -9 -60 -35 -90 -56 -30 -22 -67 -48 -81 -58 l-26 -17 -60 -75 -61 -75 -34 -66 -35 -65 -37 -110 -36 -110 3 -4539 2 -4540 28 -105 28 -105 24 -35 c13 -19 30 -51 37 -70 l12 -35 54 -65 c30 -36 59 -71 65 -77 35 -38 187 -153 202 -153 6 0 30 -11 55 -24 l45 -24 95 -26 95 -26 1960 0 1960 0 11 8 11 7 -14 32 -13 33 -39 24 -38 25 -74 81 -74 81 -38 72 -39 72 6 60 5 61 21 49 22 50 9 55 c13 69 63 227 97 302 l25 56 -32 41 -32 41 -47 21 c-26 11 -71 29 -100 40 -29 10 -65 27 -80 38 l-27 19 -42 11 c-24 7 -65 23 -92 36 -27 14 -57 25 -67 25 l-19 1 -55 29 c-30 17 -62 30 -70 30 -8 0 -42 14 -75 30 -33 16 -67 30 -76 30 -9 0 -43 13 -75 30 -32 16 -104 48 -159 70 -107 44 -215 92 -255 114 l-25 14 -38 48 c-52 67 -96 148 -113 206 -8 27 -23 63 -33 81 -11 17 -22 43 -26 57 -4 14 -17 38 -29 53 -59 78 -215 221 -273 251 -18 9 -58 38 -90 64 -32 27 -130 106 -218 177 -172 139 -315 257 -435 359 -41 36 -92 76 -112 90 -57 38 -161 127 -292 250 -65 61 -131 118 -145 127 -31 19 -453 443 -478 479 -9 14 -47 59 -84 100 -128 143 -212 245 -259 315 -18 28 -45 64 -60 81 l-26 30 -74 224 -73 223 -48 61 c-61 78 -161 221 -183 263 l-16 32 0 68 c0 37 4 107 9 154 l9 86 19 38 18 38 17 11 17 10 37 -13 36 -13 43 45 43 44 28 6 28 5 23 -9 23 -9 10 -26 10 -25 -6 -25 -6 -25 7 -86 7 -87 59 -54 58 -54 16 -49 17 -49 21 0 c12 0 28 4 36 9 l14 9 -8 105 -7 105 20 44 c10 24 27 51 36 61 l17 17 26 0 25 0 35 -37 c19 -21 41 -50 48 -64 l14 -26 11 -66 c5 -36 19 -94 30 -129 10 -34 23 -91 29 -125 5 -34 21 -97 34 -140 l25 -78 12 -80 12 -80 29 -56 c31 -62 79 -137 117 -184 33 -40 71 -64 240 -157 l50 -27 37 -43 37 -43 19 -44 20 -44 82 -81 c45 -45 104 -97 132 -117 48 -35 85 -66 143 -119 28 -25 69 -50 161 -96 l54 -27 12 17 13 17 -1 72 0 72 18 34 17 35 74 75 74 74 0 17 c0 10 -11 73 -25 141 l-25 124 5 120 6 120 20 132 19 132 25 69 c13 37 36 107 50 155 l25 87 0 208 0 207 18 65 18 65 25 36 c13 20 32 50 41 65 10 16 36 58 58 92 l40 64 15 59 c9 33 22 74 30 92 41 94 106 363 136 560 l20 138 -15 67 c-19 88 -56 189 -83 233 -13 20 -23 40 -23 45 0 5 -11 25 -24 44 -26 39 -67 131 -101 231 -12 36 -28 76 -36 90 -12 23 -39 92 -80 209 l-20 55 -19 110 c-10 61 -26 179 -34 263 l-15 152 -20 67 c-10 38 -26 95 -34 128 -8 33 -29 98 -46 145 l-31 84 -44 77 c-25 42 -48 90 -52 106 -4 15 -33 80 -64 143 l-58 115 -15 70 c-19 82 -24 132 -37 357 l-10 167 -20 103 c-25 129 -25 152 1 278 l20 103 23 46 c13 25 29 70 36 99 l12 52 -6 15 -5 15 -713 -1 -713 -1 -45 -14z"></path></g></g><g id="l1OBKUiTzQa0bGx6gM7bmQg" fill="rgb(63,125,168)" style="transform: none;"><g style="transform: none;"><path id="pxadMnAiV" d="M2826 10578 c-3 -13 -6 -54 -6 -93 l0 -70 -15 -70 c-9 -38 -24 -140 -35 -225 -11 -85 -24 -171 -30 -190 l-10 -35 0 -110 0 -110 15 -175 c17 -200 22 -235 41 -271 l13 -27 15 -5 16 -6 75 24 c41 14 92 27 112 30 l38 5 34 -18 35 -17 8 -30 8 -30 -17 -122 -17 -121 17 -166 16 -165 32 -93 c65 -191 107 -294 167 -413 8 -16 24 -48 35 -70 10 -22 28 -49 38 -60 l18 -21 16 -43 15 -44 64 -68 c71 -74 128 -147 195 -248 24 -36 53 -79 64 -95 l20 -30 23 -70 c13 -39 30 -91 40 -116 l16 -45 -5 -145 -6 -145 -20 -77 c-11 -42 -25 -114 -31 -160 -6 -46 -19 -112 -30 -148 -10 -36 -26 -105 -35 -153 -9 -48 -21 -100 -26 -115 -6 -15 -20 -90 -30 -167 l-19 -140 0 -125 0 -125 20 -32 19 -32 26 -7 26 -6 38 5 37 5 49 33 c28 19 52 36 55 39 3 3 57 55 120 115 325 307 482 461 808 788 l357 358 23 45 23 44 9 72 9 72 -15 56 c-8 30 -19 100 -25 155 l-11 100 -24 75 -23 75 -16 129 -17 128 -14 47 c-13 42 -26 124 -55 344 l-10 77 -19 61 -18 61 -27 38 -27 39 -38 113 -38 113 -28 50 c-15 28 -40 65 -56 83 -15 18 -28 37 -28 42 0 5 -24 37 -53 72 l-54 63 -10 30 c-6 17 -22 47 -35 67 l-25 37 -11 74 -11 73 -30 73 -29 72 -26 24 -26 24 0 14 c0 8 -9 26 -21 41 l-20 26 7 22 c8 29 60 95 98 128 41 35 154 110 166 110 5 0 49 13 97 29 49 16 109 32 135 36 l47 6 36 25 c20 13 40 24 45 24 4 0 40 29 79 65 39 36 75 65 80 65 5 0 22 11 38 24 l28 23 76 32 75 31 80 15 c43 8 95 19 114 26 l35 11 221 5 220 6 41 -26 40 -25 6 -31 6 -30 -14 -67 -14 -67 -22 -41 -22 -41 -41 -30 c-22 -16 -61 -37 -85 -47 -24 -9 -51 -23 -60 -31 -9 -8 -36 -25 -61 -36 -54 -26 -85 -53 -171 -152 l-66 -75 -7 -28 -7 -27 -29 -41 c-17 -23 -30 -45 -30 -50 0 -4 -13 -27 -30 -50 -16 -22 -30 -46 -30 -52 0 -6 -13 -30 -29 -53 l-29 -43 -7 -36 -6 -37 19 -20 20 -20 71 -5 71 -5 34 -35 34 -35 12 -45 11 -45 19 -24 19 -24 7 -57 6 -57 15 -35 c8 -19 25 -86 39 -149 13 -62 29 -122 35 -133 6 -10 17 -56 25 -102 l14 -84 64 -194 c35 -106 71 -207 80 -223 30 -58 96 -212 96 -224 0 -6 11 -33 24 -59 13 -26 26 -60 30 -77 4 -16 22 -61 41 -100 18 -38 45 -95 59 -126 l25 -56 21 -91 20 -91 -31 -78 c-16 -43 -39 -99 -50 -125 -10 -26 -19 -52 -19 -59 0 -11 -31 -79 -96 -213 -13 -28 -24 -56 -24 -64 0 -8 -13 -38 -29 -66 -16 -28 -32 -66 -36 -83 l-7 -33 -10 -6 c-5 -4 -23 -34 -39 -68 -16 -33 -36 -72 -44 -86 -8 -14 -22 -41 -30 -60 -9 -19 -31 -60 -50 -90 -19 -30 -46 -75 -60 -100 -14 -25 -44 -70 -66 -100 -21 -30 -50 -71 -64 -90 -14 -19 -40 -54 -58 -77 -17 -23 -69 -91 -114 -150 -45 -60 -91 -119 -103 -133 -11 -14 -31 -39 -43 -57 -38 -55 -120 -162 -173 -226 -28 -34 -58 -74 -65 -88 -8 -15 -38 -53 -66 -85 -90 -101 -159 -188 -176 -221 l-17 -32 0 -53 0 -53 35 -124 c19 -69 35 -136 35 -151 l0 -26 -41 -54 c-23 -30 -47 -59 -55 -63 l-14 -8 0 -28 0 -28 23 -20 c32 -30 56 -40 112 -48 28 -5 68 -14 90 -22 22 -8 77 -21 123 -28 l83 -14 54 -31 54 -31 64 -72 c80 -90 189 -232 210 -274 17 -31 85 -127 149 -210 18 -23 50 -56 71 -74 l39 -31 44 0 43 1 38 19 c21 11 56 25 78 32 22 7 49 19 60 26 11 7 40 20 65 29 25 9 99 43 164 75 l119 60 20 0 21 0 75 36 c42 19 90 42 106 50 17 7 48 20 70 28 93 34 304 131 390 181 82 47 161 90 218 118 26 14 56 32 65 41 10 8 38 22 62 31 l44 16 21 18 20 19 40 12 c22 7 56 20 75 30 19 10 52 20 73 24 22 4 50 12 63 18 l24 11 0 28 c0 15 -3 34 -6 43 l-6 15 -51 17 c-29 9 -68 28 -87 41 -19 12 -38 23 -43 23 -11 0 -102 71 -181 143 l-69 62 -33 52 c-19 28 -38 54 -43 57 -5 3 -12 18 -15 32 -4 15 -18 41 -31 58 l-24 32 -12 54 -12 54 -21 41 -21 40 0 200 0 200 33 84 c18 46 41 96 53 112 11 15 25 43 31 61 6 18 25 53 41 78 l31 45 97 95 98 95 43 26 c24 15 54 30 68 34 14 4 43 17 65 28 22 11 69 28 105 38 36 10 83 24 105 33 l40 15 145 1 145 0 114 -37 115 -36 55 -33 c31 -18 73 -42 93 -54 l37 -20 84 -83 c47 -45 95 -98 108 -118 13 -20 46 -70 73 -110 27 -41 58 -94 70 -119 l21 -45 3 2295 3 2295 -16 55 c-9 30 -21 64 -27 75 -7 11 -23 40 -37 65 -13 25 -37 60 -53 78 -15 18 -28 36 -28 40 0 9 -78 88 -117 120 -15 13 -45 36 -66 52 l-38 29 -37 12 c-20 6 -45 18 -54 26 -9 8 -34 21 -55 29 l-38 13 -2881 1 -2882 0 -6 -22z"></path><path id="pYiKgSJtW" d="M9140 4671 l-10 -20 0 -53 0 -54 15 -20 14 -19 1 93 c0 50 -2 92 -5 92 -2 0 -9 -9 -15 -19z"></path><path id="popAXaDIE" d="M9098 4105 c-25 -19 -61 -41 -80 -50 -75 -37 -238 -129 -328 -187 -36 -22 -83 -51 -105 -63 -22 -13 -87 -52 -145 -87 -172 -106 -329 -181 -430 -208 -25 -7 -61 -22 -80 -33 -50 -31 -133 -74 -300 -157 -80 -39 -158 -78 -175 -87 -16 -9 -50 -27 -75 -40 -80 -42 -116 -67 -186 -126 -153 -128 -241 -199 -279 -225 -22 -14 -60 -44 -85 -65 l-45 -39 -42 -71 c-23 -40 -51 -84 -63 -100 l-22 -27 -10 -38 c-11 -39 -33 -75 -80 -130 -15 -18 -34 -47 -42 -65 l-13 -32 -69 -78 -69 -77 -55 -39 c-30 -21 -100 -62 -154 -90 -132 -70 -191 -109 -249 -165 -26 -25 -51 -46 -56 -46 -5 0 -23 -12 -40 -26 l-31 -26 -48 -17 -47 -17 -14 -29 -14 -30 1 -51 1 -51 36 -108 35 -109 14 -15 c7 -9 21 -38 30 -65 l16 -49 17 -19 c10 -11 30 -43 44 -71 58 -112 109 -220 109 -231 0 -6 12 -29 26 -50 l27 -39 13 -71 c8 -39 14 -85 14 -102 l0 -31 -15 -42 -14 -42 -53 -65 c-29 -36 -108 -124 -175 -194 l-123 -127 0 -21 0 -21 19 -11 20 -10 1381 0 1381 0 57 24 c31 13 74 27 95 30 l38 7 67 36 c37 20 81 48 99 62 50 41 186 175 211 209 33 44 88 158 106 219 l16 52 0 1730 0 1731 -7 0 c-5 0 -29 -16 -55 -35z"></path></g></g></svg>