<svg xmlns="http://www.w3.org/2000/svg" class="img-fluid" id="outputsvg" style="transform: matrix(0.769231, 0, 0, 0.769231, 0, 0); transform-origin: 50% 50%; cursor: move; transition: transform 200ms ease-in-out 0s;" width="1048" height="1046" viewBox="0 0 10480 10460"><g id="l3WgSHMsb1TfaNQdTqj4Xpm" fill="rgb(129,137,226)" style="transform: none;"><g style="transform: none;"><path id="pEJfNl6C6" d="M3525 9398 c-22 -15 -75 -60 -117 -100 -42 -40 -136 -125 -209 -188 -72 -63 -166 -146 -208 -185 -104 -95 -362 -321 -426 -372 -29 -22 -55 -48 -58 -57 l-6 -16 -1 -3754 -2 -3755 9 -16 9 -15 2689 0 2689 0 8 14 9 15 -1 4213 0 4213 -13 12 -13 13 -2159 3 -2159 2 -41 -27z m3744 -632 l12 -14 -2 -1246 -1 -1245 -12 -10 -12 -10 -1155 -1 -1154 -1 -79 -6 -79 -6 -58 -46 c-67 -54 -181 -152 -259 -225 -30 -28 -91 -82 -135 -120 -44 -38 -108 -95 -141 -126 l-62 -58 -7 -94 -6 -93 4 -487 5 -487 7 -10 6 -11 34 0 34 0 99 93 c54 50 171 157 261 237 l163 145 14 34 14 33 0 227 c0 124 3 256 7 294 l6 67 421 -2 421 -3 3 -224 2 -224 -14 -23 c-9 -12 -59 -60 -112 -106 -54 -45 -167 -146 -253 -223 -162 -146 -246 -220 -471 -415 -73 -63 -194 -169 -268 -235 -75 -66 -188 -166 -251 -222 l-116 -103 -12 -22 -13 -23 0 -667 0 -668 9 0 9 0 6 -24 6 -25 73 -64 c39 -36 118 -106 174 -156 l103 -91 687 0 688 0 30 19 c17 10 89 72 160 137 72 66 145 130 163 142 l32 23 0 15 0 14 15 0 15 0 0 1585 0 1585 483 0 482 0 15 -10 15 -9 0 -1978 0 -1978 -7 -26 -8 -26 -31 -7 -32 -6 -2007 0 -2008 0 -21 18 -21 17 2 2000 3 2000 232 5 231 5 64 60 c35 33 107 98 162 145 54 47 133 116 175 154 42 37 106 93 144 124 l67 56 0 43 0 43 -525 0 -525 0 -15 24 -15 23 2 951 3 950 20 22 c11 13 65 61 120 108 55 48 143 125 195 172 52 47 113 102 136 121 22 18 77 67 122 107 l82 72 1719 0 1719 0 11 -14z m-1659 -6030 l-10 -26 -409 0 -409 0 -13 17 -14 16 -3 346 -3 346 6 33 6 33 18 17 c78 74 144 134 191 172 30 24 71 62 90 83 19 22 75 71 123 109 49 38 91 76 94 84 3 8 40 42 82 77 42 35 117 101 166 147 l90 83 3 -755 2 -756 -10 -26z"/><path id="pX8WAvkdA" d="M4965 8349 l-120 -8 -100 5 -101 6 -36 -15 -36 -15 -91 -90 -91 -91 0 -638 0 -638 108 -112 107 -112 291 -4 290 -4 16 6 c9 3 60 49 115 101 l99 95 14 45 13 45 4 580 4 580 -13 36 -13 35 -108 102 -108 102 -62 -2 c-34 0 -116 -5 -182 -9z m-11 -459 l26 -10 0 -382 0 -383 -8 -13 -9 -13 -47 -1 -47 -1 -7 8 -7 7 -7 91 c-3 51 -7 205 -7 344 l-1 252 11 50 10 50 27 4 c15 2 30 5 34 6 4 0 18 -3 32 -9z"/><path id="pQa0CDCDL" d="M5858 8347 l-46 -12 -90 -85 c-49 -47 -94 -95 -101 -108 l-12 -23 0 -462 c0 -254 0 -538 1 -631 l0 -168 108 -108 107 -107 287 -7 286 -6 28 10 27 11 80 77 79 77 24 37 24 38 0 625 0 626 -11 22 c-15 28 -88 99 -159 154 l-55 43 -206 0 c-113 0 -233 2 -265 5 l-59 4 -47 -12z m330 -457 l12 0 0 -382 0 -383 -9 -13 -8 -13 -49 3 -49 3 -12 25 -13 25 0 293 0 292 10 0 10 0 0 60 0 60 -10 0 -9 0 5 14 6 15 31 4 c18 2 41 3 52 1 11 -2 26 -4 33 -4z"/><path id="ps0mmD1Er" d="M3760 8335 l-13 -15 8 -118 8 -117 3 -547 2 -548 -9 -6 -9 -5 0 -42 0 -42 -19 -29 c-10 -16 -46 -54 -80 -85 l-61 -57 0 -40 0 -41 163 -6 c89 -3 224 -5 299 -4 l137 2 15 20 14 20 7 92 7 92 -5 703 -5 703 -11 34 -11 35 -12 8 -13 8 -201 0 -202 0 -12 -15z"/></g></g><g id="l6A6fURTZHJNcHqmodEfLzF" fill="rgb(218,222,245)" style="transform: none;"><g style="transform: none;"><path id="pCFqmJTkD" d="M0 10384 l0 -75 18 13 c10 7 44 36 75 63 l57 50 0 13 0 12 -75 0 -75 0 0 -76z"/><path id="phs9Qp6wV" d="M5090 10446 l0 -14 -247 -5 c-137 -3 -268 -9 -293 -12 -505 -72 -959 -195 -1355 -367 -38 -17 -86 -37 -105 -46 -88 -38 -373 -184 -445 -229 -44 -27 -89 -52 -99 -56 -18 -7 -126 -75 -191 -120 -307 -214 -372 -264 -544 -410 -248 -211 -558 -545 -752 -807 -165 -224 -238 -332 -304 -450 -26 -47 -62 -107 -80 -135 -18 -27 -70 -124 -115 -215 -137 -274 -193 -410 -296 -719 l-74 -224 0 -26 c0 -15 -4 -31 -8 -36 -9 -11 -48 -139 -57 -190 -3 -16 -8 -59 -12 -95 l-6 -65 -8 -10 c-7 -9 -20 -77 -33 -175 -3 -19 -12 -75 -20 -125 l-16 -90 0 -510 0 -511 9 -32 10 -32 -11 0 -11 0 7 -62 c4 -35 9 -91 13 -126 l6 -63 8 -5 9 -5 0 -42 c0 -53 38 -275 52 -304 l11 -23 0 -30 0 -30 8 0 8 0 -5 -13 -5 -13 31 -76 30 -76 -6 -17 -7 -17 13 -8 12 -7 1 -27 2 -26 7 0 c3 0 10 -15 13 -32 4 -18 13 -40 19 -48 l12 -15 3 -34 c1 -18 9 -51 17 -73 l14 -40 -5 -8 -5 -8 8 -4 c5 -1 32 -66 61 -143 29 -77 58 -149 65 -160 7 -11 22 -46 34 -77 12 -31 53 -120 91 -196 l70 -140 -6 -6 -6 -6 12 0 12 0 -6 -9 -5 -9 16 -16 c8 -9 12 -16 8 -16 -4 0 2 -9 14 -21 l22 -20 -5 -10 -6 -9 9 0 c6 0 19 -15 30 -32 92 -150 135 -225 135 -235 0 -7 4 -13 8 -13 4 0 21 -21 38 -47 48 -75 203 -288 239 -327 17 -20 32 -39 32 -44 0 -4 13 -21 30 -37 16 -16 28 -31 25 -33 -2 -3 7 -13 20 -24 l25 -20 -5 -8 -5 -8 15 -6 c8 -3 14 -9 13 -13 -1 -4 43 -53 98 -108 55 -55 142 -144 193 -198 52 -53 96 -97 100 -97 3 0 49 -41 101 -90 52 -49 98 -90 103 -90 4 0 7 -4 7 -10 l0 -10 14 0 14 0 5 -14 c6 -14 120 -106 132 -106 4 0 25 -15 48 -34 58 -46 295 -206 307 -206 6 0 10 -3 10 -8 0 -4 37 -29 83 -57 45 -27 84 -52 87 -55 3 -3 25 -14 49 -25 24 -11 49 -24 55 -30 6 -6 39 -28 72 -48 l62 -37 16 0 16 0 0 -8 0 -8 83 -34 c45 -19 84 -38 85 -42 2 -4 8 -8 13 -8 6 0 29 -9 52 -19 145 -66 428 -181 446 -181 5 0 51 -14 103 -31 51 -17 122 -39 157 -49 l64 -18 14 5 13 5 53 -25 54 -25 94 -21 c52 -12 137 -28 189 -36 52 -9 120 -20 151 -25 30 -6 80 -10 110 -10 l55 0 10 -10 10 -10 120 -2 119 -1 13 -10 14 -11 6 10 c4 5 15 10 25 10 l17 2 0 -9 0 -9 55 0 55 0 0 10 0 10 23 0 24 0 32 -16 32 -16 37 7 c20 4 41 9 45 12 5 3 40 5 78 5 l70 0 6 -6 6 -6 99 0 98 0 0 9 0 9 108 1 107 1 105 15 c139 20 160 23 195 35 17 5 47 9 67 8 20 0 42 3 48 7 6 3 32 9 58 12 l47 5 10 9 9 9 26 0 c33 0 194 42 330 85 58 19 125 39 150 45 65 17 278 95 352 129 35 16 97 43 138 60 119 48 423 205 550 284 262 164 388 249 510 347 52 42 112 88 133 102 134 90 571 530 744 749 153 193 391 536 442 636 12 24 39 70 60 103 79 122 256 500 328 700 116 321 143 405 183 575 17 72 35 138 40 147 5 9 12 39 15 65 3 26 9 73 14 103 5 30 16 107 25 170 l16 115 10 17 9 17 0 642 0 642 -9 16 c-5 9 -16 69 -25 133 l-17 117 7 10 6 11 -9 0 -10 0 5 21 6 21 -10 7 -10 6 -15 75 c-9 41 -30 129 -47 194 -17 66 -28 122 -26 125 3 2 1 9 -4 15 -5 6 -11 25 -13 41 -2 17 -6 32 -9 35 -3 3 -15 34 -26 70 -55 172 -127 368 -181 495 -62 144 -237 504 -286 588 l-28 47 -11 0 -10 0 6 6 5 6 -14 16 c-21 23 -66 94 -68 107 -1 5 -12 29 -24 53 l-22 42 -11 0 -10 0 5 9 6 9 -13 5 -13 5 -65 93 c-35 52 -67 102 -71 111 -4 10 -14 21 -23 24 l-15 6 -49 67 c-27 36 -81 102 -120 146 -39 44 -71 85 -72 90 -1 6 -117 122 -258 258 l-256 248 -85 65 c-47 35 -101 81 -121 100 -20 20 -45 41 -56 47 -10 7 -34 21 -52 32 -18 11 -69 46 -112 78 -43 31 -82 57 -87 57 -5 0 -42 23 -82 51 -40 27 -87 57 -104 66 -17 9 -33 19 -36 22 -9 12 -120 72 -320 173 l-195 99 -180 73 -180 74 -170 55 c-93 31 -201 63 -240 72 -38 9 -90 23 -114 31 -24 8 -87 24 -140 35 -96 20 -115 23 -308 53 -57 9 -114 21 -129 26 l-25 10 -305 0 -304 0 0 15 0 15 -85 0 -85 0 0 -14z m2777 -1069 l13 -13 0 -4182 0 -4183 -8 -15 -8 -14 -2659 0 -2659 0 -9 15 -8 16 1 3724 1 3725 6 16 c3 9 29 35 58 57 64 51 322 277 426 372 42 39 136 122 208 185 73 63 167 148 209 188 42 40 95 85 117 100 l41 27 2129 -2 2129 -3 13 -13z"/><path id="p4aTaPRNV" d="M3708 8738 c-45 -40 -100 -89 -122 -107 -23 -19 -84 -74 -136 -121 -52 -47 -126 -112 -165 -145 -38 -32 -94 -81 -122 -109 l-53 -50 0 -981 0 -980 15 -23 16 -22 525 0 524 0 0 -13 0 -13 -67 -56 c-38 -31 -102 -87 -144 -124 -42 -38 -121 -107 -175 -154 -55 -47 -127 -112 -162 -145 l-64 -60 -231 -5 -232 -5 -3 -2032 -2 -2033 23 -15 24 -15 2061 2 2061 3 14 19 14 19 1 2021 0 2021 -16 7 -17 7 -515 0 -515 1 3 -1585 2 -1585 -15 0 -15 0 0 -14 0 -15 -32 -23 c-18 -12 -91 -76 -163 -142 -71 -65 -143 -127 -160 -137 l-30 -19 -658 0 -657 0 -103 91 c-56 50 -135 120 -174 156 l-73 64 -6 25 -6 24 -9 0 -9 0 0 638 1 637 12 23 12 22 116 103 c63 56 176 156 251 222 74 66 195 172 268 235 225 195 309 269 471 415 86 77 199 178 253 223 53 46 103 93 111 105 l14 22 2 248 3 247 -10 10 -10 10 -450 -2 -449 -3 -2 -285 -3 -285 -11 -37 -12 -37 -171 -153 c-94 -84 -213 -193 -265 -241 l-93 -89 -9 9 -9 9 -6 507 -6 507 10 0 9 0 -3 45 -4 45 62 59 c35 32 99 89 143 127 44 38 105 92 135 120 69 65 185 165 257 224 l55 44 61 6 62 7 1174 2 1175 1 12 11 13 10 1 1276 1 1275 -12 14 -11 14 -1749 0 -1749 0 -82 -72z m1579 -510 l108 -102 13 -35 13 -36 -4 -550 -4 -550 -13 -45 -13 -45 -36 -33 c-20 -18 -66 -63 -103 -99 l-67 -66 -273 1 -273 2 -107 113 -108 112 0 608 0 608 91 91 91 90 33 13 32 14 89 -5 89 -5 135 9 c74 5 149 10 167 11 l32 1 108 -102z m896 92 l222 0 55 -43 c71 -55 144 -126 159 -154 l11 -22 0 -596 0 -595 -24 -38 -23 -37 -86 -82 -85 -82 -36 -6 -36 -7 -67 6 c-38 3 -146 6 -242 6 l-175 0 -108 109 -108 109 1 159 c0 87 0 163 -1 168 -1 11 0 296 2 592 l2 202 -6 7 -7 6 8 22 c5 11 6 26 4 33 l-4 12 12 23 c7 13 52 61 101 108 l90 85 46 12 47 11 13 -4 c8 -2 113 -4 235 -4z m-2018 -16 l15 -15 2 -22 c0 -12 3 -42 5 -67 2 -25 6 -340 8 -700 l5 -655 -6 -71 -6 -70 -13 -18 -13 -18 -154 0 c-84 -1 -206 0 -270 1 l-118 1 0 12 0 12 64 61 c34 33 72 74 84 91 l21 30 -4 37 -3 37 9 5 8 6 1 547 0 547 -9 60 -9 60 10 13 10 12 -11 0 -12 0 3 48 2 47 8 11 8 11 175 1 175 1 15 -15z"/><path id="pdOck112F" d="M4827 7901 l-11 -26 -4 -245 -4 -245 7 -151 7 -151 9 -14 8 -14 76 1 75 1 8 7 7 8 5 411 5 412 -13 15 -13 15 -75 1 -76 1 -11 -26z"/><path id="pQQRANbIC" d="M6075 7923 l-30 -5 -7 -11 c-4 -7 -8 -27 -8 -44 l0 -33 10 0 10 0 0 -30 0 -30 -10 0 -11 0 3 -335 3 -334 15 -15 15 -14 73 -4 74 -3 8 16 9 15 2 409 2 410 -24 6 c-27 8 -88 8 -134 2z"/><path id="pEeIdB8XG" d="M5510 4234 c-63 -59 -146 -131 -183 -162 -37 -30 -72 -63 -78 -74 l-10 -18 -87 -69 c-48 -38 -103 -86 -122 -108 -19 -21 -60 -59 -90 -83 -47 -38 -113 -98 -191 -172 l-18 -17 -6 -33 -6 -33 3 -376 3 -376 14 -16 13 -17 439 0 439 0 10 26 10 26 -2 800 -3 801 -10 3 -10 4 -115 -106z"/></g></g></svg>