<svg class="img-fluid" id="outputsvg" xmlns="http://www.w3.org/2000/svg" style="transform: matrix(0.769231, 0, 0, 0.769231, 0, 0); transform-origin: 50% 50%; cursor: move; transition: transform 200ms ease-in-out 0s;" width="916" height="1060" viewBox="0 0 9160 10600"><g id="l1e1eaE77MQTgQeQgXSc806" fill="rgb(81,139,179)" style="transform: none;"><g style="transform: none;"><path id="p14gR8as1c" d="M2817 10563 c-3 -21 -6 -60 -7 -88 0 -27 -5 -67 -11 -88 -16 -61 -39 -208 -39 -256 l0 -45 -26 -108 -26 -109 11 -212 11 -212 14 -86 14 -86 11 -19 c6 -10 15 -31 21 -46 l10 -28 28 0 29 0 46 20 45 20 59 6 58 5 25 -13 24 -13 8 -35 7 -35 -19 -73 -20 -72 0 -63 0 -62 25 -179 24 -179 25 -47 24 -47 8 -39 c4 -21 20 -66 36 -99 15 -33 28 -65 28 -71 0 -6 8 -22 19 -35 10 -13 24 -42 31 -64 15 -47 79 -166 97 -180 6 -5 21 -30 31 -55 l20 -45 54 -60 c88 -99 154 -178 173 -210 24 -39 54 -88 93 -148 l30 -48 7 -42 7 -42 25 -54 26 -53 -6 -122 -6 -121 -15 -48 -15 -48 -17 -142 -16 -142 -19 -50 -19 -50 -11 -70 -11 -70 -18 -46 -19 -46 -11 -114 c-6 -63 -15 -181 -20 -262 l-9 -149 19 -43 19 -44 20 -10 20 -11 48 0 48 0 21 13 c67 39 115 78 210 170 58 56 113 106 122 110 9 5 62 54 117 110 55 56 235 235 400 398 165 163 332 329 371 370 40 41 93 94 118 119 l46 45 32 55 33 55 3 100 4 100 -16 85 c-17 95 -28 139 -62 255 l-23 80 -21 170 c-23 193 -43 326 -71 469 l-20 98 -26 62 c-14 33 -34 73 -44 87 l-18 26 -38 114 -37 114 -28 39 c-15 22 -28 45 -28 50 0 6 -16 31 -35 56 -20 25 -46 58 -58 74 -12 15 -36 46 -54 67 l-31 39 -7 30 c-4 16 -11 32 -16 36 -5 3 -16 18 -24 34 l-15 29 -10 72 -10 71 -31 72 c-18 39 -40 83 -50 97 l-18 26 -13 47 -12 47 24 45 23 45 27 14 c15 8 33 21 40 30 7 9 36 31 64 50 l51 33 40 11 c22 6 51 11 65 11 l25 0 50 20 c27 10 67 22 87 25 l37 6 28 23 c15 13 42 30 58 39 l30 15 44 47 44 47 31 13 c17 8 40 23 50 34 l19 21 14 0 c8 0 45 13 81 29 l67 29 75 11 75 10 225 7 225 7 59 -17 59 -17 -5 -67 -5 -67 -20 -45 c-11 -25 -23 -52 -26 -62 l-6 -16 -46 -32 -47 -32 -32 -9 c-19 -5 -62 -26 -97 -46 l-64 -37 -97 -99 -97 -98 -16 -49 -16 -48 -15 -13 c-8 -7 -22 -28 -30 -48 -8 -19 -21 -43 -29 -51 -8 -9 -27 -39 -41 -66 -14 -27 -33 -62 -41 -77 -8 -16 -17 -45 -20 -65 l-5 -37 22 -20 22 -20 73 -3 74 -4 35 -46 36 -45 0 -19 0 -18 30 -57 30 -56 0 -36 0 -36 16 -55 c9 -30 29 -102 44 -160 15 -58 33 -118 39 -134 6 -15 18 -71 27 -124 l15 -95 11 -21 c13 -24 62 -166 87 -251 l18 -60 55 -115 c31 -63 59 -128 63 -145 3 -16 17 -52 29 -80 13 -27 27 -64 30 -82 l7 -32 18 -23 c10 -13 28 -49 39 -81 12 -32 29 -68 37 -80 l15 -23 11 -100 12 -99 -28 -75 c-15 -41 -36 -102 -47 -135 -10 -33 -23 -67 -29 -75 -5 -8 -14 -26 -21 -40 -6 -14 -23 -52 -38 -85 -15 -33 -31 -74 -35 -92 l-6 -32 -20 -25 -20 -25 -19 -57 c-11 -32 -26 -65 -34 -73 -7 -9 -19 -34 -26 -56 -7 -22 -23 -53 -35 -70 -12 -16 -25 -42 -29 -57 l-6 -26 -24 -29 c-13 -15 -27 -39 -31 -53 -4 -14 -18 -39 -31 -56 -13 -17 -24 -35 -24 -41 0 -6 -10 -23 -23 -39 -12 -15 -31 -42 -42 -60 -27 -43 -106 -148 -182 -240 -34 -42 -82 -106 -108 -142 -62 -90 -102 -143 -127 -166 -11 -10 -37 -44 -57 -75 -20 -31 -56 -80 -79 -108 -24 -27 -55 -69 -70 -91 -15 -22 -74 -95 -131 -162 l-103 -122 -20 -56 -20 -57 22 -105 c11 -58 29 -131 40 -162 l18 -58 -9 -33 -9 -33 -45 -47 -45 -47 0 -29 c0 -16 3 -37 6 -46 l6 -16 39 -20 39 -19 47 -7 48 -6 30 -15 30 -15 98 -13 98 -13 32 -24 c18 -13 42 -27 55 -31 l22 -7 0 -9 c0 -5 25 -36 55 -67 31 -32 74 -83 97 -113 23 -30 54 -68 68 -85 15 -16 33 -46 40 -65 l14 -35 53 -63 53 -63 0 -12 0 -13 28 -26 c15 -14 40 -41 56 -58 l30 -33 34 -14 34 -14 48 10 48 10 33 20 c19 10 52 24 74 31 22 7 47 18 55 25 8 7 35 19 60 25 25 7 56 20 70 30 14 9 43 23 65 30 22 7 50 21 63 30 l22 18 53 12 52 13 45 23 c60 31 225 104 235 104 7 0 38 14 180 80 22 10 58 26 80 35 22 9 49 24 60 34 11 10 31 22 45 26 14 4 39 17 55 29 17 13 44 27 60 33 17 6 48 22 69 37 21 14 43 26 49 26 6 0 25 11 44 26 18 14 48 30 66 36 17 6 39 17 47 24 8 7 50 28 92 47 l77 35 55 12 56 11 15 15 15 15 0 25 c0 14 -5 34 -10 44 l-10 19 -51 15 -50 15 -28 21 c-16 11 -34 20 -39 20 -13 0 -75 49 -186 148 l-93 84 -22 37 c-11 21 -27 44 -35 50 l-15 12 -6 30 -7 29 -22 28 -22 27 -13 55 c-8 30 -23 73 -34 95 l-21 40 -4 165 -4 165 10 40 c18 69 60 177 79 204 11 14 25 42 32 61 6 19 24 53 39 75 32 47 225 245 239 245 5 0 25 11 43 25 l35 26 45 13 c25 8 63 23 85 35 22 11 47 21 56 21 9 0 51 11 93 25 l77 25 127 0 127 0 70 -25 c39 -13 79 -25 90 -25 l20 0 75 -38 c75 -37 113 -62 172 -114 17 -16 35 -28 41 -28 9 0 66 -57 109 -109 42 -50 145 -214 177 -281 l26 -55 3 2330 3 2330 -17 55 -17 55 -29 39 c-15 21 -28 44 -28 51 0 7 -9 20 -21 31 -12 10 -27 30 -34 44 -16 29 -61 74 -130 130 -27 22 -59 49 -70 59 l-20 19 -35 10 -35 9 -39 27 -39 26 -2913 0 -2912 0 -5 -37z"></path><path id="pFoCXRmuG" d="M9137 4719 l-17 -26 -2 -82 -2 -82 17 -16 17 -17 5 6 6 5 -3 119 -3 119 -18 -26z"></path><path id="ptOejm16h" d="M9090 4119 c-35 -27 -69 -49 -75 -49 -6 0 -35 -16 -65 -35 -30 -19 -60 -35 -68 -35 -8 0 -32 -13 -55 -28 -113 -77 -137 -92 -202 -127 -38 -21 -106 -62 -150 -90 -44 -29 -128 -78 -187 -109 l-108 -56 -122 -46 c-68 -25 -138 -55 -157 -67 -80 -49 -402 -212 -441 -223 -14 -4 -38 -17 -53 -30 -16 -13 -34 -24 -41 -24 -7 0 -30 -13 -51 -30 -21 -16 -42 -30 -47 -30 -11 0 -79 -53 -115 -89 -13 -14 -34 -32 -47 -40 -13 -9 -41 -28 -62 -42 -22 -15 -67 -51 -100 -80 -34 -30 -83 -72 -109 -94 -47 -40 -77 -79 -125 -160 -14 -23 -35 -57 -47 -76 -13 -19 -23 -40 -23 -48 0 -17 -53 -104 -79 -130 -11 -11 -29 -37 -40 -58 -25 -50 -120 -158 -179 -205 -90 -71 -101 -79 -134 -90 -18 -6 -42 -19 -53 -28 -11 -10 -31 -21 -44 -25 -14 -4 -54 -27 -90 -50 l-66 -43 -45 -46 c-24 -25 -49 -46 -55 -46 -6 0 -26 -13 -46 -29 l-35 -29 -42 -11 -41 -12 -16 -22 -15 -21 0 -84 0 -84 30 -75 c17 -41 30 -80 30 -86 0 -7 14 -32 30 -56 l30 -44 0 -22 0 -22 29 -40 c16 -22 31 -49 35 -60 4 -12 20 -38 36 -58 l30 -38 0 -16 c0 -9 14 -43 30 -76 17 -33 30 -65 30 -71 0 -7 11 -25 24 -41 l24 -29 11 -79 11 -80 -6 -43 -6 -43 -59 -70 c-33 -39 -59 -74 -59 -78 0 -5 -56 -64 -125 -132 l-125 -125 0 -30 0 -31 23 -12 22 -12 1420 3 1420 3 45 21 c74 35 140 67 194 95 l51 26 90 91 c102 103 135 142 160 192 10 19 26 46 36 59 l19 24 0 26 0 27 10 10 10 10 -2 1776 -3 1776 -65 -49z"></path></g></g><g id="l3YQUf2chOP1Z6zaUxtdfg0" fill="rgb(201,61,71)" style="transform: none;"><g style="transform: none;"><path id="p8WgrRrHP" d="M1360 10580 l-695 -5 -20 -9 c-11 -5 -32 -17 -46 -27 l-25 -18 -50 -12 -49 -12 -31 -26 c-17 -14 -50 -37 -74 -51 -95 -54 -189 -172 -257 -320 l-34 -75 -17 -65 -16 -65 0 -1965 c0 -1081 1 -1985 1 -2010 7 -474 7 -557 5 -2345 -1 -803 1 -1689 4 -1970 l6 -510 -10 -45 -11 -44 20 -191 20 -190 17 -24 c20 -27 48 -72 77 -120 11 -19 27 -41 35 -50 9 -9 28 -38 43 -64 l28 -47 18 -9 c10 -6 50 -37 89 -69 l71 -60 43 -6 44 -7 34 -20 34 -21 126 -20 125 -21 1864 -4 1864 -4 24 5 23 6 0 24 0 24 -28 11 -29 12 -68 67 -68 67 -39 58 -39 58 -13 49 -13 49 4 33 c2 18 8 60 14 93 l11 60 19 33 19 33 10 67 11 67 15 30 c9 17 24 69 34 117 l19 88 -10 30 -11 30 -24 5 c-13 3 -36 7 -50 10 -14 3 -42 17 -62 30 -20 13 -49 27 -64 30 l-27 7 -17 19 -17 19 -59 11 -60 12 -27 22 -26 22 -52 8 -53 7 -26 20 -26 21 -46 9 -46 8 -22 21 -22 20 -52 14 -52 14 -23 21 -23 21 -48 14 c-81 22 -177 56 -213 73 -18 10 -55 28 -82 42 l-48 25 -35 41 c-19 22 -51 68 -70 101 l-36 61 0 25 0 24 -29 54 c-15 30 -34 71 -41 92 l-12 38 -13 5 -13 6 -16 39 -16 40 -24 9 -24 9 -7 18 -6 18 -42 32 c-23 18 -73 54 -112 80 -38 26 -75 52 -82 58 -14 14 -295 243 -331 270 -15 11 -41 33 -57 49 -17 15 -46 40 -65 54 -19 15 -54 43 -77 64 -24 21 -46 38 -51 38 -5 0 -34 25 -65 55 -31 30 -59 55 -63 55 -3 0 -22 13 -41 30 l-34 30 -13 0 -13 0 -69 62 c-38 35 -107 100 -154 145 -47 45 -97 91 -112 103 l-28 21 0 14 0 13 -37 15 -38 15 -52 54 c-28 29 -128 129 -222 221 l-171 168 -24 37 c-13 20 -46 60 -73 87 -69 72 -183 207 -252 300 -33 44 -69 92 -81 107 -11 15 -29 51 -39 80 -43 122 -52 147 -81 235 l-30 91 0 26 0 25 -52 61 c-76 88 -116 141 -130 170 -7 14 -26 45 -43 69 l-30 43 -3 132 -4 131 11 75 10 75 36 33 37 34 43 -6 42 -7 17 25 16 26 41 20 40 21 42 -3 42 -3 17 -35 18 -35 0 -110 0 -110 60 -62 59 -62 7 -26 6 -26 12 4 11 4 6 29 c4 16 7 59 8 95 l1 66 20 47 21 46 19 10 19 10 44 0 45 0 45 -55 45 -54 7 -56 7 -56 23 -67 c12 -37 26 -89 30 -117 l7 -50 24 -57 24 -57 10 -73 c6 -40 17 -104 26 -143 l15 -70 17 -31 c9 -17 31 -58 48 -91 17 -33 43 -77 58 -96 l28 -36 20 -7 c12 -3 41 -19 66 -35 l46 -29 17 0 17 0 13 -16 c7 -8 32 -25 55 -37 l43 -22 25 -35 c14 -19 34 -51 43 -70 21 -42 74 -113 88 -119 5 -2 37 -32 71 -65 34 -34 79 -74 100 -89 93 -67 134 -100 134 -108 0 -10 118 -87 162 -106 l27 -12 5 7 c2 4 5 42 5 83 l0 76 11 28 c12 31 28 50 114 135 l59 59 -23 68 -23 68 -5 165 -4 165 11 100 11 100 29 116 28 115 18 28 18 27 13 72 12 72 -5 183 -6 183 34 102 34 102 33 50 c19 28 42 59 52 70 9 11 20 32 24 47 l6 27 24 26 24 26 7 52 7 52 23 41 24 40 7 63 7 63 24 47 24 46 9 85 c10 92 23 165 40 220 l10 35 0 75 0 75 -25 37 -25 37 0 40 0 40 -30 34 -30 35 0 19 0 20 -30 38 -30 38 0 30 0 30 -29 46 -29 46 -6 38 -7 38 -24 45 -24 46 -7 36 -7 37 -23 28 -24 29 0 29 0 30 -14 27 c-8 15 -21 61 -29 102 l-16 75 -11 154 -11 154 -14 34 -14 33 -17 108 -18 107 -23 44 c-13 24 -23 52 -23 63 l0 18 -59 118 c-33 64 -76 153 -96 197 -20 44 -50 107 -66 139 -16 32 -29 65 -29 74 0 8 -11 40 -24 71 l-25 56 -11 235 -11 234 -26 83 -25 83 4 93 4 93 20 39 c12 22 24 58 28 79 l8 40 29 58 29 57 0 30 0 29 -12 3 c-7 2 -326 2 -708 -1z"></path></g></g></svg>